<svg width="24" height="24" viewBox="0 0 24 24" fill="none" xmlns="http://www.w3.org/2000/svg">
<path fill-rule="evenodd" clip-rule="evenodd" d="M5.31229 13C5.29704 13.0004 5.28182 13.0003 5.26665 13H5C4.44772 13 4 13.4477 4 14V21C4 21.5523 3.55228 22 3 22C2.44772 22 2 21.5523 2 21V14C2 12.6636 2.87379 11.5313 4.08121 11.1433C4.02767 10.7696 4 10.3878 4 10C4 5.58172 7.58172 2 12 2C16.4183 2 20 5.58172 20 10C20 10.3878 19.9723 10.7696 19.9188 11.1433C21.1262 11.5313 22 12.6636 22 14V19C22 20.6569 20.6569 22 19 22H13C11.3431 22 10 20.6569 10 19C10 17.3431 11.3431 16 13 16H19C19.3506 16 19.6872 16.0602 20 16.1707V14C20 13.4477 19.5523 13 19 13H18.7333C18.7182 13.0003 18.703 13.0004 18.6877 13H5.31229ZM12 4C8.68629 4 6 6.68629 6 10C6 10.3412 6.02838 10.6752 6.0828 11H11C9.89543 11 9 10.1046 9 9C9 7.89543 9.89543 7 11 7C11 6.44772 11.4477 6 12 6C12.5523 6 13 6.44772 13 7H14C14.5523 7 15 7.44772 15 8C15 8.55228 14.5523 9 14 9H13C14.1046 9 15 9.89543 15 11H17.9172C17.9716 10.6752 18 10.3412 18 10C18 6.68629 15.3137 4 12 4ZM20 19C20 18.4477 19.5523 18 19 18H13C12.4477 18 12 18.4477 12 19C12 19.5523 12.4477 20 13 20H19C19.5523 20 20 19.5523 20 19Z" fill="#161616"/>
</svg>
